/* XPM */
char*  button_switch15_xpm[] = {
"15 15 8 1",
" 	c None",
".	c #F9F9F8",
"+	c #F1F0EE",
"@	c #E2E1DE",
"#	c #DCDAD5",
"$	c #B7B4AC",
"%	c #000000",
"&	c #A8A49C",
".+++++++++++++@",
"+#############$",
"+#####%%%#####$",
"+#####%%%#####$",
"+#####%%%#####$",
"+#####%%%#####$",
"+#####%%%#####$",
"+#####%%%#####$",
"+#####%%%#####$",
"+#####%%%#####$",
"+#####%%%#####$",
"+#####%%%#####$",
"+#####%%%#####$",
"+#############$",
"@$$$$$$$$$$$$$&"};
