/* XPM */
char * button_zoomin15_xpm[] = {
(char *)"15 15 33 1",
(char *)" 	c #F9F9F8",
(char *)".	c #F1F0EE",
(char *)"+	c #E2E1DE",
(char *)"@	c #DCDAD5",
(char *)"#	c #B7B4AC",
(char *)"$	c #B4B3B0",
(char *)"%	c #848380",
(char *)"&	c #8B8987",
(char *)"*	c #605F5F",
(char *)"=	c #ADADAD",
(char *)"-	c #5C5C5C",
(char *)";	c #EBEBEB",
(char *)">	c #666666",
(char *)",	c #333333",
(char *)"'	c #000000",
(char *)")	c #616161",
(char *)"!	c #CCCCCC",
(char *)"~	c #525252",
(char *)"{	c #1F1F1F",
(char *)"]	c #707070",
(char *)"^	c #C2C2C2",
(char *)"/	c #6E6D6B",
(char *)"(	c #CAC9C4",
(char *)"_	c #353433",
(char *)":	c #464644",
(char *)"<	c #585755",
(char *)"[	c #A09F9D",
(char *)"}	c #3E3D3C",
(char *)"|	c #61605E",
(char *)"1	c #D3D1CC",
(char *)"2	c #4F4E4D",
(char *)"3	c #8D8C88",
(char *)"4	c #A8A49C",
(char *)" .............+",
(char *)".@@@@@@@@@@@@@#",
(char *)".@@@@@@@@@@@@@#",
(char *)".@@@@@@$%%$@@@#",
(char *)".@@@@@&*==*&@@#",
(char *)".@@@@@-;>>;-@@#",
(char *)".@@@@@>,'',>@@#",
(char *)".@@@@@)!~~!)@@#",
(char *)".@@@@@{]^^]/@@#",
(char *)".@@@(_':<<[@@@#",
(char *)".@@(}'|1@@@@@@#",
(char *)".@@%'2@@@@@@@@#",
(char *)".@@@3@@@@@@@@@#",
(char *)".@@@@@@@@@@@@@#",
(char *)"+#############4"};
