/* XPM */
static char * button_zoomout_xpm[] = {
"25 25 5 1",
" 	c #FFFFFF",
".	c #DCDAD5",
"+	c #9E9A91",
"@	c #808080",
"#	c #000000",
"                         ",
" .......................+",
" .......................+",
" .......................+",
" .......................+",
" .......................+",
" ...........@####@......+",
" ..........##    ##.....+",
" .........@#      #@....+",
" .........#        #....+",
" .........# ###### #....+",
" .........# ###### #....+",
" .........#        #....+",
" .........@#      #@....+",
" .........###    ##.....+",
" ........########@......+",
" .......####............+",
" ......####.............+",
" .....####..............+",
" .....###...............+",
" ......#................+",
" .......................+",
" .......................+",
" .......................+",
" ++++++++++++++++++++++++"};
